<svg width="96" height="22" viewBox="0 0 96 22" fill="none" xmlns="http://www.w3.org/2000/svg">
<path fill-rule="evenodd" clip-rule="evenodd" d="M5.75037 21.551H0V0.304148H5.75037V3.08493H5.79427C7.50621 1.04279 9.83269 0 12.2031 0C15.0124 0 17.2511 1.04279 18.5241 3.34562H18.6119C20.3677 1.12969 23.0454 0 26.1181 0C30.7272 0 33.6682 2.73733 33.6682 9.25478V21.551H27.9178V10.6017C27.9178 7.21264 26.8643 5.08361 24.1867 5.08361C21.7724 5.08361 19.7971 7.12575 19.7971 10.9493V21.551H14.0467V10.6017C14.0467 7.21264 12.9054 5.08361 10.2717 5.08361C7.68179 5.08361 5.75037 7.12575 5.75037 10.9493V21.551ZM53.6868 11.2245C53.6868 13.2082 52.0572 14.8163 50.047 14.8163C48.0368 14.8163 46.4072 13.2082 46.4072 11.2245C46.4072 9.24076 48.0368 7.63264 50.047 7.63264C52.0572 7.63264 53.6868 9.24076 53.6868 11.2245ZM60.9664 11.2245C60.9664 17.1756 56.0776 22 50.047 22C44.0164 22 39.1276 17.1756 39.1276 11.2245C39.1276 5.27332 44.0164 0.448959 50.047 0.448959C56.0776 0.448959 60.9664 5.27332 60.9664 11.2245ZM70.066 4.0408C70.066 6.02451 68.4364 7.63264 66.4262 7.63264C64.416 7.63264 62.7864 6.02451 62.7864 4.0408C62.7864 2.05708 64.416 0.448959 66.4262 0.448959C68.4364 0.448959 70.066 2.05708 70.066 4.0408ZM81.2816 21.551H75.5261V0.304148H81.2816V3.04148H81.3695C83.083 1.04279 85.5434 0 88.2234 0C92.7927 0 96 2.43318 96 8.95063V21.551H90.2445V10.3845C90.2445 6.34365 88.7946 5.08361 86.1145 5.08361C83.2148 5.08361 81.2816 7.08229 81.2816 10.9059V21.551Z" fill="white"/>
</svg>
